<svg width="33" height="12" viewBox="0 0 33 12" fill="none" xmlns="http://www.w3.org/2000/svg">
<path d="M30.1293 11.024L29.8293 9.52399H26.4773L25.944 11.0133L23.2573 11.0187C24.5364 7.94285 25.8181 4.86818 27.1027 1.79466C27.3213 1.27333 27.7093 1.00799 28.2813 1.01066C28.7187 1.01466 29.432 1.01466 30.4227 1.01199L32.5 11.02L30.1293 11.024ZM27.232 7.46933H29.392L28.5853 3.70933L27.232 7.46933ZM9.91333 1.00933L12.6147 1.01199L8.43867 11.0253L5.704 11.0227C5.01633 8.37775 4.33722 5.73063 3.66667 3.08133C3.53333 2.55333 3.26933 2.18399 2.76133 2.00933C2.01097 1.75789 1.25711 1.51698 0.5 1.28666L0.5 1.01333H4.816C5.56267 1.01333 5.99867 1.37466 6.13867 2.11599C6.28 2.85866 6.63467 4.74933 7.20533 7.78799L9.91333 1.00933ZM16.3267 1.01199L14.1907 11.0227L11.62 11.02L13.7533 1.00933L16.3267 1.01199ZM21.54 0.82666C22.3093 0.82666 23.2787 1.06666 23.836 1.28666L23.3853 3.36266C22.8813 3.15999 22.052 2.88666 21.3547 2.89599C20.3413 2.91333 19.7147 3.33866 19.7147 3.74666C19.7147 4.41066 20.8027 4.74533 21.9227 5.47066C23.2013 6.29733 23.3693 7.03999 23.3533 7.84666C23.336 9.52133 21.9227 11.1733 18.9413 11.1733C17.5813 11.1533 17.0907 11.0387 15.9813 10.6453L16.4507 8.47866C17.58 8.95199 18.0587 9.10266 19.024 9.10266C19.908 9.10266 20.6667 8.74533 20.6733 8.12266C20.6787 7.67999 20.4067 7.45999 19.4147 6.91333C18.4227 6.36533 17.0307 5.60666 17.0493 4.08399C17.072 2.13466 18.9187 0.82666 21.5413 0.82666H21.54Z" fill="#F9FAFB"/>
</svg>
